<?xml version="1.0" encoding="UTF-8"?>
<svg id="Layer_1" data-name="Layer 1" xmlns="http://www.w3.org/2000/svg" viewBox="0 0 136.36 12.94">
  <path style="fill: #eee;" d="M136.36,12.94v-7.77c-.38.12-.79.29-.98.31-.79-.52-1.44-.12-1.75-.58.16-1.12-1.86-.15-1.75-.07-.34-.32-1.4-.66-1.76-.78-.4,1.11-1.69-.13-1.74.22.08-1.03-2.19,2.27-2.01,1.44,0-1.4-.89-2.33-.89-2.31,0-1.64-2.24.37-2.24.46,0-.15-1.51-1.23-1.51-.79,0-1.25-1.54-.4-1.54-.89,0-1.29-1.6-2.29-1.6-1.36,0-1.54-1.86-.49-1.86-.16,0-.39-1.78-.22-1.78,1,0,.95-1.68,1.02-1.68.63,0-.23-1.86-.16-1.86-.16,0-.37-1.81-.51-1.81.36,0,.11-1.31.93-1.31,1.2s-1.8.97-1.8.23c0,.18-1.21-.5-1.21,1.3,0-1.02-1.44.84-1.44.92,0,.63-1.64-.2-1.64.51,0-1.2-1.75,1.04-1.75.77,0,.78-1.84-1.1-1.84-.16,0,.26-1.57-.13-1.57-.81,0-.55-1.65-.8-1.65-.22,0,.29-1.53-.06-1.53-.74,0,.02-1.65-1.59-1.65-.67,0-.36-1.75-.82-1.75-.71,0,.32-1.65,1.32-1.65,1.29,0,1.09-1.89-1.33-1.89-.99,0-.38-1.71-.4-1.71.42,0,.44-1.52,1.62-1.52,1.14,0-.2-1.81-.48-1.81-.14,0-.03-1.52.98-1.52,1,0-1.08-1.72.28-1.72.23,0-.37-1.71.34-1.71.21,0,.52-1.61.85-1.61.65,0,.22-1.66,1.26-1.66.49,0,1.09-1.68,1.75-1.68.55,0,.52-1.8-.73-1.8-.8,0,.88-1.73.14-1.73.2,0-.55-1.77.89-1.77.29,0-.56-1.77-.23-1.77-.02,0-1.21-1.69-.4-1.69-.65,0,.35-1.75.25-1.75-.13,0,.05-1.82-.1-1.82.21,0,.21-1.59-.92-1.59-1.08,0,.4-1.85.41-1.85.38,0-.53-1.79-.91-1.79.08,0-.68-1.66.35-1.66-.63,0-.18-1.74.25-1.74-.12,0,.29-1.65-1.61-1.65-1.2,0-.66-1.76-.53-1.76-.5,0,.36-1.78.53-1.78.85,0,.29-1.73-.21-1.73.31,0-.04-1.89-1.48-1.89-.77,0,.65-1.62.94-1.62,1.17,0,.51-.6,1.56-.6,1.57,0-.74-1.47.24-1.47.89,0,.39-1.71.4-1.71.27,0,.57-1.77.49-1.77.88,0,.12-1.85.52-1.85.28,0,.28-1.64-1.59-1.64-1.85,0-.05-1.92.6-1.92.88,0,.67-1.6.27-1.6-1.28,0,.75-1.99,1.86-1.99.9,0-.03-1.71.25-1.71-.62,0-.23-1.79-.11-1.79-.15,0,.18-1.82.28-1.82.11,0,.39-1.59-1.67-1.59-1.73,0-.47-1.86.3-1.86.59,0,.09-1.74-.11-1.74-.39,0,.18-1.73.72-1.73.42,0,.3-1.71-.31-1.71.43,0,.05-1.59-.68-1.81-.96-.12.14-1.71-.2-1.75.24-.49-.22-1.67-.06-1.7.45-.15-.86-1.68-.1-1.7.57-.26-.11-1.91,1.1-1.71.63-.65.86-2.62-.43-1.78-1.1-.11.15-1.12.37-1.62.51v4.83h136.36Z"/>
</svg>